<svg width="28" height="28" viewBox="0 0 28 28" fill="none" xmlns="http://www.w3.org/2000/svg">
<path d="M18.7932 14.7789C21.0758 13.339 22.5886 10.879 22.5886 8.08606C22.5886 3.65795 18.7932 0.0546875 14.129 0.0546875C9.46484 0.0546875 5.66948 3.65795 5.66948 8.08606C5.66948 10.879 7.17848 13.339 9.46484 14.7789C4.29385 16.5877 0.59375 21.298 0.59375 26.8259V27.8968H27.6643V26.8259C27.6643 21.298 23.9642 16.5877 18.7932 14.7789ZM7.92535 8.08606C7.92535 4.83734 10.7071 2.19639 14.129 2.19639C17.5509 2.19639 20.3327 4.83734 20.3327 8.08606C20.3327 11.3348 17.5509 13.9757 14.129 13.9757C10.7071 13.9757 7.92535 11.3348 7.92535 8.08606ZM2.90679 25.7551C3.47457 20.3502 8.29117 16.1174 14.129 16.1174C19.9669 16.1174 24.7835 20.3502 25.3513 25.7551H2.90679Z" fill="#CC112C"/>
</svg>
