<svg width="1200" height="1502" viewBox="0 0 1200 1502" fill="none" xmlns="http://www.w3.org/2000/svg">
<mask id="mask0_611_7" style="mask-type:alpha" maskUnits="userSpaceOnUse" x="0" y="0" width="1200" height="1502">
<rect width="1200" height="1502" fill="white"/>
</mask>
<g mask="url(#mask0_611_7)">
<g filter="url(#filter0_d_611_7)">
<path fill-rule="evenodd" clip-rule="evenodd" d="M1324.04 1160.08L1325.33 1160.12L1345.13 228.051L1346.99 228.113L1349.57 106.58L1349.39 106.388C1345.99 102.822 1342.6 99.259 1338.51 96.8058C1336 95.3024 1333.47 94.8004 1330.58 95.2417C1328.6 95.5437 1328.75 97.0808 1328.9 98.6834C1329.01 99.869 1329.12 101.09 1328.38 101.874C1327.34 102.983 1326.36 102.491 1325.59 102.098C1324.59 101.592 1323.92 101.253 1323.85 104.726C1323.84 105.294 1323.84 105.687 1323.85 105.944C1323.75 105.274 1323.38 103.984 1322.26 103.873C1321.33 103.781 1320.27 103.774 1319.17 103.767C1315.57 103.744 1311.46 103.718 1309.44 100.745C1307.57 97.9796 1288.4 86.8 1287.2 91.1001C1286.98 91.8934 1286.49 92.9918 1285.91 94.2847C1283.69 99.2673 1280.19 107.138 1285.78 111.569C1289 114.119 1281 109.94 1275.52 107.081L1275.52 107.079L1275.51 107.075C1274.26 106.421 1273.14 105.836 1272.32 105.418C1268.22 103.332 1260.84 100.627 1256.34 99.8837C1256.03 99.8334 1255.26 99.52 1254.32 99.1332L1254.31 99.1314C1251.09 97.8178 1245.81 95.6603 1249.54 100.058C1250.55 101.259 1250.04 101.026 1248.86 100.495C1247.14 99.7152 1244 98.2941 1242.21 99.8151C1238.37 103.064 1234.02 106.325 1229.58 108.904C1225.19 111.456 1224.93 110.268 1224.58 108.701C1224.31 107.475 1223.99 106.016 1221.59 105.937C1219.39 105.864 1210.84 105.889 1208.91 109.146C1208.61 109.118 1208.25 109.097 1207.84 109.083L1199.44 108.804C1195.88 108.686 1194.09 109.878 1192.24 111.114C1190.23 112.448 1188.15 113.834 1183.69 113.686C1180.66 113.585 1180.71 114.402 1180.79 115.609C1180.84 116.461 1180.91 117.508 1179.92 118.565C1179.88 118.601 1179.62 118.289 1179.24 117.84L1179.24 117.839C1178.46 116.92 1177.2 115.424 1176.41 115.146C1174.66 114.522 1173.43 113.518 1172.22 112.525C1170.41 111.041 1168.64 109.584 1165.17 109.469C1162.59 109.383 1160.51 110.665 1158.47 111.922C1156.51 113.133 1154.58 114.321 1152.28 114.245C1151.61 114.222 1150.98 113.586 1150.25 112.855C1149.24 111.832 1148.04 110.623 1146.28 110.643C1143.53 110.675 1141.82 112.79 1140.14 114.863C1139.47 115.685 1138.81 116.501 1138.09 117.177C1137.72 117.526 1136.3 117.097 1134.52 116.557C1131.47 115.635 1127.36 114.391 1125.59 116.161C1120.99 120.766 1120.98 120.684 1120.89 119.595C1120.8 118.664 1120.66 116.999 1117.52 116.895C1115.55 116.829 1114.52 118.347 1113.41 119.974C1112.13 121.852 1110.75 123.875 1107.72 123.775C1106.42 123.732 1094.72 123.103 1100.59 118.134C1101.52 117.349 1096.43 117.227 1093.01 117.145L1093.01 117.145C1091.35 117.106 1090.08 117.075 1090.06 116.984C1089.58 114.889 1087.17 114.402 1085.24 114.014C1082.93 113.545 1081.32 113.221 1084.66 110.4C1088.86 106.849 1079.75 102.202 1072.63 98.5636C1068.33 96.3677 1064.75 94.5396 1065.25 93.5429C1066.51 91.0441 1065.16 92.2558 1063.14 94.0817C1059.45 97.4076 1053.51 102.771 1056.89 91.464C1061.74 75.2469 1055.2 75.6554 1045.92 76.2353L1045.92 76.2355C1043.63 76.3783 1041.18 76.5315 1038.69 76.4489C1036.77 76.3851 1031.66 74.3519 1026.54 72.3156C1020.31 69.8403 1014.08 67.3606 1013.55 68.4089C1011.02 73.4537 1010.7 72.1612 1010.24 70.2902C1009.78 68.4507 1009.19 66.0519 1006.21 68.5657C1003.68 70.7121 1001.56 69.393 999.271 67.9648L999.271 67.9647C997.844 67.075 996.349 66.1431 994.642 65.9801C992.044 65.7321 988.037 66.6053 984.099 67.4636L984.097 67.464C978.649 68.6512 973.334 69.8096 972.062 67.9329C970.719 65.951 967.689 67.2958 964.639 68.6494C962.294 69.69 959.938 70.7355 958.328 70.2793C955.014 69.3402 953.523 71.013 952.259 72.4326C950.904 73.9527 949.809 75.1825 947.009 72.6058C944.737 70.5135 939.721 74.6834 939.651 77.9661C939.602 80.2831 939.149 82.4507 938.699 84.6075C938.253 86.7424 937.81 88.8665 937.762 91.1138C937.694 94.2863 936.966 94.2301 935.874 94.1455C935.125 94.0875 934.204 94.0163 933.208 94.9659C930.42 97.6242 928.913 97.0896 927.109 96.4496C925.629 95.9242 923.948 95.3277 921.193 96.3686C918.175 97.5094 908.479 105.457 908.422 108.154C908.354 111.329 906.816 110.566 904.643 109.487C902.84 108.593 900.601 107.481 898.403 108.222C896.72 108.79 895.278 109.802 893.881 110.783C890.844 112.917 888.02 114.9 883.39 111.827C879.443 109.208 876.366 110.707 873.226 112.235C871.81 112.925 870.382 113.62 868.856 113.947C867.251 114.291 866.354 113.648 865.478 113.021C864.823 112.551 864.18 112.091 863.261 112.06C862.441 112.033 861.881 113.371 861.325 114.702C860.617 116.394 859.914 118.074 858.686 116.912C856.976 115.294 856.501 113.525 856.171 112.297C855.66 110.391 855.498 109.789 851.613 113.075C848.508 115.701 839.305 119.743 835.046 118.23C828.506 115.906 828.397 115.931 823.558 117.053L823.549 117.055C822.693 117.254 821.69 117.486 820.478 117.746C817.19 118.451 814.729 119.712 812.32 120.945C808.745 122.776 805.286 124.548 799.409 124.353C797.484 124.289 794.565 123.526 791.358 122.687L791.357 122.687C783.123 120.533 772.983 117.882 772.826 125.272C772.782 127.356 769.919 125.095 767.592 123.258C766.372 122.295 765.3 121.449 764.859 121.405C762.254 121.147 759.978 122.445 757.651 123.773C755.36 125.081 753.019 126.416 750.265 126.325C747.814 126.244 740.711 124.869 740.651 124.204C740.44 121.864 739.189 125.18 737.831 128.777C735.962 133.731 733.892 139.216 734.063 131.192C734.241 122.802 730.728 125.362 727.132 127.982C725.318 129.303 723.483 130.64 722.091 130.594C721.37 130.57 719.729 129.495 718.321 128.572C717.566 128.076 716.877 127.625 716.434 127.404C715.7 127.038 715.056 127.525 714.417 128.009C713.539 128.673 712.672 129.33 711.597 127.744C709.342 124.416 707.438 126.661 705.701 128.71C704.072 130.631 702.59 132.379 701.102 129.197C699.76 126.327 699.012 125.892 696.75 127.752C696.167 128.231 695.969 127.224 695.725 125.982C695.439 124.534 695.091 122.765 693.996 122.656C693.375 122.595 692.503 122.469 691.514 122.327C687.99 121.819 682.968 121.096 682.378 122.271C679.301 128.397 676.154 128.945 676.319 121.169C676.379 118.337 675.349 119.781 674.354 121.176L674.353 121.177C674.029 121.631 673.709 122.08 673.431 122.374C673.309 122.504 673.219 122.306 673.071 121.979C672.771 121.318 672.233 120.133 670.708 120.082C669.757 120.051 668.851 120.399 668.055 120.704C666.435 121.327 665.271 121.774 665.107 118.495C664.884 114.054 663.091 115.472 661.096 117.05C659.968 117.942 658.776 118.886 657.765 118.852C656.894 118.823 656.985 117.487 657.083 116.041C657.187 114.51 657.3 112.857 656.29 112.498C655.506 112.22 654.472 112.305 653.418 112.393L653.417 112.393C651.941 112.516 650.426 112.641 649.508 111.773C648.178 110.514 647.546 109.222 646.992 108.09C646.002 106.068 645.266 104.562 641.251 104.693C640.214 104.727 639.004 105.038 637.74 105.364C634.865 106.104 631.703 106.918 629.624 104.708C627.832 102.803 625.222 101.419 625.144 105.06C625.076 108.273 624.382 106.375 623.706 104.528C623.325 103.489 622.951 102.467 622.697 102.376C620.13 101.464 619.148 102.592 617.893 104.033L617.892 104.034C617.54 104.438 617.168 104.866 616.732 105.281C615.653 106.31 614.353 105.532 613.039 104.744C611.99 104.115 610.932 103.481 609.967 103.755C608.18 104.264 606.372 107.856 604.723 111.133C602.35 115.847 600.305 119.909 599.123 113.203C598.342 108.765 594.451 108.662 590.958 108.57L590.957 108.57C589.588 108.533 588.28 108.499 587.245 108.205C585.413 107.686 584.086 104.606 582.994 102.072L582.993 102.071C582.563 101.071 582.169 100.157 581.795 99.5178C581.195 98.4926 579.839 97.5528 578.538 96.6502L578.538 96.6499C576.989 95.5755 575.516 94.554 575.483 93.5038C575.171 83.5489 567.866 81.794 559.892 79.8784L559.891 79.8782C556.004 78.9446 551.959 77.9727 548.486 75.9948C544.036 73.4596 543.302 75.1344 542.495 76.9754C541.872 78.3974 541.205 79.9185 538.749 79.6749C536.545 79.4563 536.135 77.4169 535.771 75.6061C535.274 73.134 534.863 71.0882 530.09 74.6838C529.213 75.3441 529.223 73.5067 529.233 71.7227C529.24 70.4888 529.247 69.2806 528.96 68.9418C528.145 67.9805 525.476 68.142 523.584 68.2566L523.579 68.2569C522.972 68.2936 522.445 68.3254 522.086 68.3135C515.348 68.0899 511.447 71.6549 507.062 75.6621C504.871 77.6641 502.559 79.7766 499.713 81.5821C494.749 84.7307 489.508 87.0271 484.245 89.333C482.472 90.1101 480.696 90.8884 478.927 91.7007C477.407 92.3988 474.726 91.5455 471.957 90.6639C468.178 89.4611 464.234 88.2056 462.848 90.767C460.235 95.5946 458.112 95.4776 456.065 95.3649C454.28 95.2666 452.553 95.1715 450.612 98.3672C449.4 100.363 448.184 99.5542 446.456 98.4039C445.06 97.4754 443.33 96.3243 440.998 96.2469C438.681 96.17 438.174 93.7864 437.639 91.2708C437.041 88.4608 436.408 85.4861 433.179 85.379C432.396 85.353 431.08 87.0626 429.905 88.5887C428.608 90.2725 427.484 91.7328 427.438 90.3925C427.309 86.6744 425.744 85.4815 423.535 88.8621C419.524 95.0016 417.974 94.6725 416.591 94.3786C415.75 94.2002 414.971 94.0346 413.738 95.3424C411.98 97.2072 406.419 102.105 403.937 102.023C403.438 102.006 403.154 100.682 402.857 99.2922C402.6 98.0955 402.334 96.8505 401.911 96.3509C399.339 93.3165 391.796 93.7818 386.315 94.12C384.562 94.228 383.021 94.3231 381.92 94.2865C374.933 94.0547 374.293 95.3187 373.047 97.7792C372.276 99.3006 371.273 101.28 368.395 103.645C362.481 108.507 358.187 111.909 351.367 109.485C350.982 109.349 350.206 109.155 349.288 108.925L349.286 108.925C347.158 108.392 344.269 107.67 343.727 107.03C342.985 106.154 343.119 104.839 343.259 103.476C343.409 102.008 343.565 100.483 342.637 99.3881C340.935 97.3794 339.281 96.8374 337.718 96.3255C335.785 95.6922 333.992 95.1048 332.423 91.8434C330.885 88.6486 327.653 88.741 324.479 88.8316L324.479 88.8316C321.833 88.9073 319.227 88.9818 317.676 87.1506C314.326 83.1974 308.972 80.7659 303.631 83.0818C302.438 83.599 300.636 85.0482 298.738 86.5737L298.737 86.5745C295.999 88.7767 293.062 91.1378 291.476 91.0852C290.551 91.0545 290.572 90.0133 290.595 88.8622L290.595 88.8618C290.623 87.4876 290.653 85.9572 289.084 85.8015C288.232 85.7171 287.059 86.7171 286.077 87.5549C285.019 88.4564 284.182 89.17 284.204 88.1417C284.414 78.2551 273.198 94.6865 271.477 97.8273C269.094 102.175 264.971 101.647 260.702 101.1C258.057 100.761 255.357 100.416 252.981 101.217C251.763 101.627 250.265 103.606 249.046 105.215C247.736 106.945 246.749 108.248 246.782 106.716C246.829 104.491 244.165 101.733 242.039 102.655C239.125 103.918 236.756 109.99 235.172 114.048L235.171 114.049C234.298 116.287 233.664 117.912 233.31 117.778C232.24 117.371 231.269 116.985 230.378 116.631C223.818 114.025 221.63 113.156 216.661 118.426C209.161 126.38 203.255 125.088 196.002 123.502C192.997 122.845 189.762 122.137 186.086 122.015C183.776 121.939 182.306 121.058 181.112 120.342C179.135 119.157 177.915 118.426 174.894 122.545C173.183 124.879 171.16 126.605 169.081 128.379C167.291 129.905 165.46 131.468 163.75 133.484C161.904 135.661 159.41 136.911 156.865 138.187L156.865 138.187C154.049 139.599 151.172 141.042 149.042 143.804C144.054 150.272 140.968 148.238 135.379 144.556C134.079 143.699 132.644 142.754 131.018 141.805C127.854 139.959 124.629 139.195 121.443 138.439C118.413 137.721 115.419 137.011 112.551 135.388C110.996 134.507 110.111 135.415 109.358 136.186C108.158 137.417 107.296 138.301 104.594 131.02C103.513 128.107 102.234 130.247 100.83 132.596L100.83 132.597C99.236 135.263 97.4805 138.201 95.6694 134.327C93.5318 129.755 92.1697 133.6 90.734 137.653C89.5643 140.955 88.3458 144.395 86.6194 143.534C80.8424 140.652 77.957 139.774 70.9572 139.812C62.7528 139.856 64.0443 137.804 65.6468 135.257L65.6469 135.257C66.9782 133.142 68.524 130.685 65.0197 128.806C60.3347 126.294 54.751 126.335 49.4344 126.373C47.6562 126.386 45.908 126.398 44.2333 126.315C40.3064 126.12 38.904 124.217 37.5211 122.341C36.4553 120.895 35.4012 119.464 33.2121 118.844C31.275 118.295 29.599 118.071 28.3757 117.908C27.1315 117.742 26.3555 117.639 26.2491 117.319C26.0726 116.789 27.7353 115.666 32.1539 112.68L32.5437 112.417C38.5558 108.354 36.6014 108.957 33.3318 109.965L33.3316 109.965C30.2895 110.904 26.1088 112.193 26.1468 110.403C26.224 106.77 17.897 107.046 13.6605 107.186L13.6602 107.186C12.8237 107.214 12.1467 107.236 11.7253 107.222C11.0025 107.198 9.77006 107.944 8.57668 108.666L8.57635 108.666L8.57575 108.666C7.02061 109.607 5.53211 110.507 5.32431 109.612C5.17566 108.971 5.24291 108.122 5.31149 107.255L5.3115 107.255C5.45574 105.43 5.60585 103.531 3.75786 103.355C2.02478 103.189 0.264752 103.309 -1.45236 103.427L-1.45245 103.427C-5.0545 103.672 -8.46777 103.905 -11.0488 101.463C-14.9619 97.7597 -19.6824 96.7861 -23.5529 100.647C-25.389 102.479 -25.2643 100.393 -25.1456 98.4061L-25.1455 98.4058C-25.0935 97.5363 -25.0426 96.6859 -25.1576 96.1907C-26.0938 92.1579 -31.7404 96.726 -33.996 98.5509L-34.0002 98.5543C-34.3636 98.8482 -34.6385 99.0706 -34.7909 99.1736C-35.6637 99.7635 -37.4298 98.4984 -39.6172 96.9315L-39.6178 96.931C-42.431 94.9157 -45.9409 92.4014 -49.1424 92.6925C-50.0301 92.7732 -50.8309 92.8598 -51.5652 92.9391L-51.5688 92.9395L-51.5689 92.9395C-55.6844 93.3846 -57.7042 93.603 -61.187 91.2921C-74.6981 82.3273 -85.9388 89.5241 -94.4451 103.299C-96.9553 107.364 -97.4307 105.898 -98.3037 103.207C-98.9969 101.069 -99.9409 98.1596 -102.353 96.6315C-103.79 95.7211 -105.368 95.4698 -106.834 95.2364L-106.834 95.2364C-109.211 94.8579 -111.292 94.5266 -111.993 91.5077C-112.389 89.8037 -113.23 90.4225 -114.202 91.138L-114.202 91.1381C-115.636 92.1931 -117.356 93.4582 -118.354 87.7939C-118.522 86.8376 -119.126 86.6091 -119.848 86.5558L-119.811 84.8433C-121.207 83.8461 -122.087 83.1034 -122.628 82.648C-123.084 82.2633 -123.297 82.0836 -123.371 82.129C-123.436 82.1687 -123.395 82.381 -123.318 82.7792C-123.234 83.2092 -123.108 83.856 -123.029 84.7364C-122.866 86.5473 -121.694 86.5438 -120.559 86.5404L-120.559 86.5404C-120.317 86.5397 -120.076 86.539 -119.848 86.5558L-121.302 155.033L-121.801 155.017L-126.378 370.498L-127.665 370.455L-147.464 1302.52L-149.325 1302.46L-151.907 1423.99L-151.724 1424.19C-148.328 1427.75 -144.935 1431.32 -140.845 1433.77C-138.339 1435.27 -135.809 1435.77 -132.918 1435.33C-130.941 1435.03 -131.085 1433.49 -131.234 1431.89C-131.345 1430.71 -131.459 1429.48 -130.72 1428.7C-129.674 1427.59 -128.702 1428.08 -127.928 1428.48C-126.93 1428.98 -126.262 1429.32 -126.188 1425.85C-126.176 1425.28 -126.179 1424.89 -126.187 1424.63C-126.085 1425.3 -125.721 1426.59 -124.596 1426.7C-123.666 1426.79 -122.61 1426.8 -121.505 1426.81C-117.913 1426.83 -113.798 1426.86 -111.783 1429.83C-109.909 1432.59 -90.7384 1443.77 -89.5389 1439.47C-89.3176 1438.68 -88.8281 1437.58 -88.2519 1436.29C-86.0313 1431.31 -82.5236 1423.44 -88.1203 1419C-91.3412 1416.45 -83.3356 1420.63 -77.8602 1423.49L-77.8583 1423.49C-76.6023 1424.15 -75.4796 1424.74 -74.6562 1425.16C-70.5618 1427.24 -63.1739 1429.95 -58.6747 1430.69C-58.3706 1430.74 -57.6029 1431.05 -56.6552 1431.44L-56.6506 1431.44C-53.4328 1432.76 -48.1475 1434.91 -51.8736 1430.52C-52.891 1429.31 -52.3761 1429.55 -51.2025 1430.08C-49.4811 1430.86 -46.3429 1432.28 -44.5448 1430.76C-40.7037 1427.51 -36.3588 1424.25 -31.9197 1421.67C-27.5253 1419.12 -27.2635 1420.31 -26.9183 1421.87C-26.6481 1423.1 -26.3267 1424.56 -23.9332 1424.64C-21.7325 1424.71 -13.1767 1424.69 -11.2525 1421.43C-10.9455 1421.46 -10.5905 1421.48 -10.1822 1421.49L-1.78087 1421.77C1.78154 1421.89 3.57002 1420.7 5.42595 1419.46C7.42736 1418.13 9.50719 1416.74 13.9747 1416.89C17.005 1416.99 16.9518 1416.17 16.8732 1414.97C16.8176 1414.11 16.7494 1413.07 17.7453 1412.01C17.7792 1411.97 18.0429 1412.29 18.4232 1412.74C19.2006 1413.65 20.4653 1415.15 21.2502 1415.43C23.0043 1416.05 24.2291 1417.06 25.4392 1418.05C27.2485 1419.53 29.025 1420.99 32.4884 1421.11C35.0691 1421.19 37.148 1419.91 39.1874 1418.65C41.1506 1417.44 43.0772 1416.25 45.3796 1416.33C46.0552 1416.35 46.6853 1416.99 47.4098 1417.72C48.4226 1418.74 49.6201 1419.95 51.385 1419.93C54.1271 1419.9 55.8441 1417.78 57.5265 1415.71C58.1936 1414.89 58.8553 1414.07 59.5733 1413.4C59.9442 1413.05 61.3621 1413.48 63.1447 1414.02C66.192 1414.94 70.3048 1416.18 72.0732 1414.41C76.673 1409.81 76.6803 1409.89 76.7766 1410.98C76.8589 1411.91 77.0061 1413.58 80.1383 1413.68C82.1084 1413.74 83.1434 1412.23 84.2525 1410.6C85.5331 1408.72 86.9125 1406.7 89.9439 1406.8C91.237 1406.84 102.942 1407.47 97.0686 1412.44C96.1409 1413.22 101.227 1413.35 104.655 1413.43L104.657 1413.43C106.31 1413.47 107.577 1413.5 107.598 1413.59C108.084 1415.68 110.496 1416.17 112.418 1416.56C114.734 1417.03 116.339 1417.35 113.003 1420.17C108.806 1423.73 117.907 1428.37 125.032 1432.01C129.332 1434.21 132.912 1436.03 132.411 1437.03C131.156 1439.53 132.499 1438.32 134.523 1436.49C138.209 1433.17 144.155 1427.8 140.774 1439.11C135.926 1455.33 142.463 1454.92 151.74 1454.34L151.742 1454.34C154.028 1454.2 156.48 1454.04 158.969 1454.13C160.89 1454.19 166.003 1456.22 171.124 1458.26C177.348 1460.73 183.583 1463.21 184.11 1462.17C186.644 1457.12 186.964 1458.41 187.427 1460.28C187.882 1462.12 188.476 1464.52 191.447 1462.01C193.985 1459.86 196.101 1461.18 198.391 1462.61C199.818 1463.5 201.313 1464.43 203.019 1464.59C205.617 1464.84 209.625 1463.97 213.563 1463.11L213.565 1463.11C219.012 1461.92 224.328 1460.76 225.6 1462.64C226.943 1464.62 229.973 1463.28 233.023 1461.92C235.367 1460.88 237.723 1459.84 239.333 1460.29C242.648 1461.23 244.138 1459.56 245.403 1458.14C246.757 1456.62 247.853 1455.39 250.652 1457.97C252.925 1460.06 257.941 1455.89 258.011 1452.61C258.06 1450.29 258.513 1448.12 258.963 1445.97C259.409 1443.83 259.852 1441.71 259.9 1439.46C259.967 1436.29 260.696 1436.34 261.788 1436.43C262.537 1436.49 263.458 1436.56 264.454 1435.61C267.242 1432.95 268.748 1433.48 270.552 1434.12C272.033 1434.65 273.714 1435.25 276.468 1434.21C279.487 1433.06 289.183 1425.12 289.24 1422.42C289.307 1419.25 290.846 1420.01 293.019 1421.09C294.821 1421.98 297.061 1423.09 299.259 1422.35C300.942 1421.78 302.384 1420.77 303.781 1419.79C306.818 1417.66 309.642 1415.67 314.272 1418.75C318.219 1421.37 321.296 1419.87 324.436 1418.34C325.851 1417.65 327.28 1416.95 328.806 1416.63C330.411 1416.28 331.308 1416.93 332.183 1417.55C332.839 1418.02 333.482 1418.48 334.4 1418.51C335.221 1418.54 335.78 1417.2 336.337 1415.87C337.045 1414.18 337.748 1412.5 338.975 1413.66C340.686 1415.28 341.161 1417.05 341.49 1418.28C342.002 1420.18 342.164 1420.79 346.049 1417.5C349.154 1414.87 358.357 1410.83 362.615 1412.34C369.156 1414.67 369.265 1414.64 374.103 1413.52L374.113 1413.52C374.968 1413.32 375.971 1413.09 377.184 1412.83C380.472 1412.12 382.933 1410.86 385.341 1409.63C388.917 1407.8 392.376 1406.03 398.253 1406.22C400.178 1406.29 403.096 1407.05 406.304 1407.89L406.305 1407.89C414.538 1410.04 424.679 1412.69 424.836 1405.3C424.88 1403.22 427.743 1405.48 430.07 1407.32L430.071 1407.32C431.29 1408.28 432.361 1409.13 432.803 1409.17C435.408 1409.43 437.683 1408.13 440.011 1406.8C442.302 1405.49 444.643 1404.16 447.397 1404.25C449.847 1404.33 456.951 1405.7 457.011 1406.37C457.222 1408.71 458.473 1405.39 459.83 1401.8C461.7 1396.84 463.769 1391.36 463.599 1399.38C463.421 1407.77 466.934 1405.21 470.529 1402.59C472.344 1401.27 474.179 1399.93 475.571 1399.98C476.292 1400 477.933 1401.08 479.34 1402C480.096 1402.5 480.785 1402.95 481.227 1403.17C481.961 1403.54 482.606 1403.05 483.244 1402.57C484.123 1401.9 484.99 1401.24 486.064 1402.83C488.32 1406.16 490.224 1403.91 491.961 1401.86C493.59 1399.94 495.072 1398.19 496.56 1401.38C497.901 1404.25 498.649 1404.68 500.911 1402.82C501.494 1402.34 501.693 1403.35 501.937 1404.59C502.222 1406.04 502.571 1407.81 503.665 1407.92C504.287 1407.98 505.158 1408.1 506.148 1408.25C509.672 1408.75 514.694 1409.48 515.284 1408.3C518.361 1402.18 521.508 1401.63 521.343 1409.41C521.282 1412.24 522.313 1410.79 523.308 1409.4L523.31 1409.4C523.633 1408.94 523.953 1408.49 524.23 1408.2C524.353 1408.07 524.443 1408.27 524.591 1408.6C524.891 1409.26 525.428 1410.44 526.954 1410.49C527.905 1410.52 528.811 1410.18 529.607 1409.87C531.226 1409.25 532.391 1408.8 532.555 1412.08C532.778 1416.52 534.57 1415.1 536.566 1413.52C537.694 1412.63 538.886 1411.69 539.897 1411.72C540.768 1411.75 540.677 1413.09 540.579 1414.53C540.474 1416.06 540.362 1417.72 541.372 1418.08C542.156 1418.35 543.191 1418.27 544.245 1418.18C545.721 1418.06 547.236 1417.93 548.154 1418.8C549.483 1420.06 550.116 1421.35 550.67 1422.48C551.659 1424.51 552.396 1426.01 556.411 1425.88C557.448 1425.85 558.657 1425.54 559.922 1425.21C562.797 1424.47 565.958 1423.66 568.038 1425.87C569.83 1427.77 572.44 1429.16 572.517 1425.51C572.586 1422.3 573.28 1424.2 573.956 1426.05C574.336 1427.08 574.711 1428.11 574.965 1428.2C577.531 1429.11 578.514 1427.98 579.769 1426.54C580.121 1426.14 580.494 1425.71 580.929 1425.29C582.009 1424.26 583.308 1425.04 584.623 1425.83C585.672 1426.46 586.73 1427.09 587.694 1426.82C589.481 1426.31 591.29 1422.72 592.939 1419.44C595.312 1414.73 597.357 1410.67 598.538 1417.37C599.32 1421.81 603.211 1421.91 606.704 1422C608.073 1422.04 609.381 1422.08 610.417 1422.37C612.249 1422.89 613.576 1425.97 614.668 1428.5L614.668 1428.5C615.099 1429.5 615.493 1430.42 615.867 1431.06C616.467 1432.08 617.822 1433.02 619.124 1433.92C620.673 1435 622.146 1436.02 622.179 1437.07C622.49 1447.03 629.796 1448.78 637.77 1450.7C641.657 1451.63 645.703 1452.6 649.175 1454.58C653.626 1457.11 654.36 1455.44 655.167 1453.6C655.79 1452.18 656.456 1450.66 658.913 1450.9C661.117 1451.12 661.527 1453.16 661.891 1454.97C662.387 1457.44 662.798 1459.49 667.572 1455.89C668.449 1455.23 668.439 1457.07 668.429 1458.85C668.422 1460.09 668.415 1461.29 668.702 1461.63C669.517 1462.59 672.186 1462.43 674.078 1462.32L674.083 1462.32C674.69 1462.28 675.217 1462.25 675.576 1462.26C682.313 1462.48 686.215 1458.92 690.6 1454.91C692.791 1452.91 695.102 1450.8 697.949 1448.99C702.913 1445.84 708.154 1443.55 713.417 1441.24C715.19 1440.46 716.966 1439.69 718.735 1438.87C720.255 1438.18 722.936 1439.03 725.705 1439.91C729.484 1441.11 733.428 1442.37 734.814 1439.81C737.426 1434.98 739.55 1435.1 741.596 1435.21C743.382 1435.31 745.109 1435.4 747.05 1432.21C748.262 1430.21 749.478 1431.02 751.206 1432.17C752.602 1433.1 754.332 1434.25 756.664 1434.33C758.981 1434.4 759.488 1436.79 760.023 1439.3C760.621 1442.11 761.253 1445.09 764.483 1445.2C765.266 1445.22 766.582 1443.51 767.757 1441.99C769.053 1440.3 770.178 1438.84 770.224 1440.18C770.352 1443.9 771.918 1445.09 774.127 1441.71C778.138 1435.57 779.688 1435.9 781.071 1436.2C781.912 1436.37 782.691 1436.54 783.924 1435.23C785.682 1433.37 791.242 1428.47 793.725 1428.55C794.224 1428.57 794.507 1429.89 794.805 1431.28C795.061 1432.48 795.328 1433.72 795.751 1434.22C798.322 1437.26 805.866 1436.79 811.347 1436.45C813.099 1436.35 814.641 1436.25 815.742 1436.29C822.728 1436.52 823.369 1435.26 824.615 1432.8C825.386 1431.27 826.389 1429.29 829.267 1426.93C835.181 1422.07 839.475 1418.67 846.295 1421.09C846.68 1421.23 847.456 1421.42 848.374 1421.65L848.375 1421.65C850.504 1422.18 853.393 1422.9 853.935 1423.54C854.677 1424.42 854.542 1425.73 854.403 1427.1C854.253 1428.57 854.097 1430.09 855.024 1431.19C856.726 1433.19 858.381 1433.74 859.943 1434.25C861.876 1434.88 863.669 1435.47 865.239 1438.73C866.777 1441.93 870.009 1441.83 873.183 1441.74C875.829 1441.67 878.435 1441.59 879.986 1443.42C883.336 1447.38 888.69 1449.81 894.031 1447.49C895.224 1446.98 897.026 1445.53 898.924 1444L898.924 1444C901.663 1441.8 904.599 1439.44 906.186 1439.49C907.111 1439.52 907.09 1440.56 907.067 1441.71C907.039 1443.09 907.009 1444.62 908.578 1444.77C909.429 1444.86 910.602 1443.86 911.585 1443.02C912.642 1442.12 913.479 1441.4 913.458 1442.43C913.248 1452.32 924.463 1435.89 926.185 1432.75C928.567 1428.4 932.691 1428.93 936.96 1429.47C939.604 1429.81 942.304 1430.16 944.681 1429.36C945.899 1428.95 947.397 1426.97 948.615 1425.36C949.926 1423.63 950.912 1422.33 950.88 1423.86C950.833 1426.08 953.497 1428.84 955.623 1427.92C958.536 1426.66 960.906 1420.58 962.49 1416.53L962.49 1416.52C963.364 1414.29 963.998 1412.66 964.352 1412.8C965.417 1413.2 966.384 1413.59 967.272 1413.94L967.284 1413.94C973.844 1416.55 976.032 1417.42 981.001 1412.15C988.501 1404.19 994.407 1405.49 1001.66 1407.07C1004.66 1407.73 1007.9 1408.44 1011.58 1408.56C1013.89 1408.64 1015.36 1409.52 1016.55 1410.23C1018.53 1411.42 1019.75 1412.15 1022.77 1408.03C1024.48 1405.7 1026.5 1403.97 1028.58 1402.2C1030.37 1400.67 1032.2 1399.11 1033.91 1397.09C1035.76 1394.91 1038.25 1393.66 1040.8 1392.39C1043.61 1390.98 1046.49 1389.53 1048.62 1386.77C1053.61 1380.3 1056.69 1382.34 1062.28 1386.02C1063.58 1386.87 1065.02 1387.82 1066.64 1388.77C1069.81 1390.61 1073.03 1391.38 1076.22 1392.13C1079.25 1392.85 1082.24 1393.56 1085.11 1395.19C1086.67 1396.07 1087.55 1395.16 1088.3 1394.39C1089.5 1393.16 1090.37 1392.27 1093.07 1399.55C1094.15 1402.47 1095.43 1400.33 1096.83 1397.98C1098.43 1395.31 1100.18 1392.37 1101.99 1396.25C1104.13 1400.82 1105.49 1396.97 1106.93 1392.92C1108.1 1389.62 1109.32 1386.18 1111.04 1387.04C1116.82 1389.92 1119.7 1390.8 1126.7 1390.76C1134.91 1390.72 1133.62 1392.77 1132.01 1395.32C1130.68 1397.43 1129.14 1399.89 1132.64 1401.77C1137.33 1404.28 1142.91 1404.24 1148.23 1404.2C1150.01 1404.19 1151.75 1404.18 1153.43 1404.26C1157.36 1404.45 1158.76 1406.36 1160.14 1408.23C1161.21 1409.68 1162.26 1411.11 1164.45 1411.73C1166.39 1412.28 1168.06 1412.5 1169.29 1412.67C1170.53 1412.83 1171.31 1412.94 1171.41 1413.26C1171.59 1413.79 1169.93 1414.91 1165.51 1417.89L1165.12 1418.16C1159.11 1422.22 1161.06 1421.62 1164.33 1420.61C1167.37 1419.67 1171.55 1418.38 1171.51 1420.17C1171.44 1423.8 1179.77 1423.53 1184 1423.39C1184.84 1423.36 1185.52 1423.34 1185.94 1423.35C1186.66 1423.38 1187.89 1422.63 1189.09 1421.91C1190.64 1420.97 1192.13 1420.07 1192.34 1420.96C1192.49 1421.6 1192.42 1422.45 1192.35 1423.32C1192.21 1425.14 1192.06 1427.04 1193.9 1427.22C1195.64 1427.38 1197.4 1427.26 1199.11 1427.15C1202.72 1426.9 1206.13 1426.67 1208.71 1429.11C1212.62 1432.81 1217.34 1433.79 1221.21 1429.93C1223.05 1428.1 1222.93 1430.18 1222.81 1432.17C1222.76 1433.04 1222.7 1433.89 1222.82 1434.38C1223.76 1438.42 1229.4 1433.85 1231.66 1432.02L1231.87 1431.86C1232.13 1431.64 1232.33 1431.48 1232.45 1431.4C1233.33 1430.81 1235.09 1432.08 1237.28 1433.64C1240.09 1435.66 1243.6 1438.17 1246.8 1437.88C1247.69 1437.8 1248.49 1437.72 1249.22 1437.64L1249.23 1437.63C1253.35 1437.19 1255.37 1436.97 1258.85 1439.28C1272.36 1448.25 1283.6 1441.05 1292.11 1427.28C1294.62 1423.21 1295.09 1424.68 1295.97 1427.37C1296.66 1429.5 1297.6 1432.41 1300.01 1433.94C1301.45 1434.85 1303.03 1435.1 1304.5 1435.34C1306.87 1435.72 1308.95 1436.05 1309.65 1439.07C1310.05 1440.77 1310.89 1440.15 1311.86 1439.44C1313.3 1438.38 1315.02 1437.12 1316.02 1442.78C1316.18 1443.74 1316.79 1443.97 1317.51 1444.02L1317.47 1445.73C1318.87 1446.73 1319.75 1447.47 1320.29 1447.93C1320.75 1448.31 1320.96 1448.49 1321.03 1448.45C1321.1 1448.41 1321.06 1448.19 1320.98 1447.8C1320.9 1447.37 1320.77 1446.72 1320.69 1445.84C1320.53 1444.03 1319.36 1444.03 1318.22 1444.03C1317.98 1444.03 1317.74 1444.04 1317.51 1444.02L1318.96 1375.54L1319.47 1375.56L1324.04 1160.08Z" fill="white"/>
</g>
</g>
<defs>
<filter id="filter0_d_611_7" x="-178.906" y="44.9375" width="1561.47" height="1458.7" filterUnits="userSpaceOnUse" color-interpolation-filters="sRGB">
<feFlood flood-opacity="0" result="BackgroundImageFix"/>
<feColorMatrix in="SourceAlpha" type="matrix" values="0 0 0 0 0 0 0 0 0 0 0 0 0 0 0 0 0 0 127 0" result="hardAlpha"/>
<feOffset dx="3" dy="9"/>
<feGaussianBlur stdDeviation="15"/>
<feComposite in2="hardAlpha" operator="out"/>
<feColorMatrix type="matrix" values="0 0 0 0 0 0 0 0 0 0 0 0 0 0 0 0 0 0 0.25 0"/>
<feBlend mode="normal" in2="BackgroundImageFix" result="effect1_dropShadow_611_7"/>
<feBlend mode="normal" in="SourceGraphic" in2="effect1_dropShadow_611_7" result="shape"/>
</filter>
</defs>
</svg>
