<svg width="27" height="26" viewBox="0 0 27 26" fill="none" xmlns="http://www.w3.org/2000/svg">
<path d="M0 10.0499C0 15.5611 4.51452 20.0441 10.0644 20.0441C12.3875 20.0441 14.5284 19.2582 16.2338 17.9403L23.9596 25.6123C24.2052 25.8561 24.527 25.9776 24.8478 25.9776C25.1687 25.9776 25.4913 25.8561 25.736 25.6123C26.2263 25.1254 26.2263 24.3351 25.736 23.8474L18.0102 16.1754C19.3373 14.482 20.1279 12.356 20.1279 10.049C20.1288 4.53871 15.6143 0.0556641 10.0644 0.0556641C4.51452 0.0556641 0 4.53871 0 10.0499ZM2.51311 10.0499C2.51311 5.91523 5.90071 2.55125 10.0644 2.55125C14.2281 2.55125 17.6157 5.91523 17.6157 10.0499C17.6157 14.1846 14.2281 17.5485 10.0644 17.5485C5.90071 17.5485 2.51311 14.1846 2.51311 10.0499Z" fill="#CC112C"/>
</svg>
